<svg width="18" height="11" viewBox="0 0 18 11" fill="none" xmlns="http://www.w3.org/2000/svg">
<path d="M17.201 1.1772C17.3198 0.786507 17.201 0.5 16.6394 0.5H14.7789C14.3056 0.5 14.0892 0.747858 13.9705 1.02008C13.9705 1.02008 13.0245 3.30457 11.6841 4.78583C11.2514 5.21685 11.0538 5.35297 10.8179 5.35297C10.7 5.35297 10.5286 5.21685 10.5286 4.82616V1.1772C10.5286 0.708369 10.392 0.5 9.99754 0.5H7.07406C6.77883 0.5 6.60067 0.71677 6.60067 0.923458C6.60067 1.36708 7.27088 1.46958 7.3396 2.71979V5.43194C7.3396 6.02596 7.23186 6.13435 6.99431 6.13435C6.36397 6.13435 4.83012 3.84146 3.91982 1.21669C3.74251 0.706688 3.56351 0.500841 3.08842 0.500841H1.22879C0.696867 0.500841 0.59082 0.748698 0.59082 1.02092C0.59082 1.50991 1.22116 3.92968 3.52703 7.12998C5.06427 9.31532 7.22846 10.5 9.20007 10.5C10.3818 10.5 10.5278 10.237 10.5278 9.78331V8.13149C10.5278 7.60553 10.6406 7.49966 11.0147 7.49966C11.2896 7.49966 11.763 7.63746 12.8667 8.69022C14.1274 9.93875 14.3361 10.4992 15.0445 10.4992H16.9041C17.4352 10.4992 17.7007 10.2362 17.548 9.71694C17.3809 9.20022 16.7786 8.44824 15.9794 7.55848C15.545 7.051 14.896 6.50487 14.6984 6.23181C14.4226 5.87977 14.5024 5.72433 14.6984 5.41178C14.6992 5.41262 16.9652 2.25181 17.201 1.1772Z" fill="white"/>
</svg>
