<svg width="35" height="36" viewBox="0 0 35 36" fill="none" xmlns="http://www.w3.org/2000/svg">
<path d="M16.0417 6.72055H5.83341C5.05987 6.72055 4.318 7.02784 3.77102 7.57482C3.22404 8.1218 2.91675 8.86367 2.91675 9.63722V30.0539C2.91675 30.8274 3.22404 31.5693 3.77102 32.1163C4.318 32.6633 5.05987 32.9705 5.83341 32.9705H26.2501C27.0236 32.9705 27.7655 32.6633 28.3125 32.1163C28.8595 31.5693 29.1667 30.8274 29.1667 30.0539V19.8455" stroke="#1D1D1D" stroke-width="3" stroke-linecap="round" stroke-linejoin="round"/>
<path d="M26.9792 4.53305C27.5594 3.95288 28.3463 3.62695 29.1667 3.62695C29.9872 3.62695 30.7741 3.95288 31.3542 4.53305C31.9344 5.11321 32.2603 5.90007 32.2603 6.72055C32.2603 7.54102 31.9344 8.32788 31.3542 8.90805L17.5001 22.7622L11.6667 24.2205L13.1251 18.3872L26.9792 4.53305Z" stroke="#1D1D1D" stroke-width="3" stroke-linecap="round" stroke-linejoin="round"/>
</svg>
