<svg width="181" height="32" viewBox="0 0 181 32" fill="none" xmlns="http://www.w3.org/2000/svg">
<g clip-path="url(#clip0_3182_153)">
<path d="M180.116 30.7385H172.757V27.8939H176.739V3.86365H172.757V1.01904H180.116V30.7385Z" fill="white"/>
<path d="M38.417 30.7376H45.7766V27.893H41.7944V3.86267H45.7766V1.01807H38.417V30.7376Z" fill="white"/>
<path d="M48.1758 26.377H52.566L54.7759 20.8844H62.6843L64.8939 26.377H69.2843L60.3292 5.09707H57.1309L48.1758 26.377ZM56.2878 17.0598L58.73 10.8484L61.1723 17.0598H56.2878ZM78.1232 15.5357V19.2453H87.1074C85.9444 21.8909 83.4439 23.0699 80.8272 23.0699C75.8844 23.0699 73.2095 19.3603 73.2095 15.737C73.2095 12.4012 75.6228 8.54776 80.6527 8.54776C81.6703 8.54776 84.6359 8.66291 86.2932 11.3659H91.0615C89.4624 7.19617 85.5955 4.72314 80.6527 4.72314C73.1222 4.72314 69.2261 10.762 69.2261 15.8808C69.2261 20.9994 72.8897 26.8947 80.7109 26.8947C88.9392 26.8947 92.0793 20.5969 92.1373 15.5357H78.1232ZM94.7542 26.377H106.297V22.5524H98.7374V17.6637H105.977V13.8391H98.7374V8.92168H106.297V5.09707H94.7542V26.377ZM109.873 26.377H113.856V11.9986L123.451 26.377H127.435V5.09707H123.451V19.4754L113.856 5.09707H109.873V26.377ZM151.509 11.1933C149.706 7.10997 145.984 4.72314 141.536 4.72314C133.918 4.72314 130.284 10.9922 130.284 15.737C130.284 20.6257 133.947 26.8947 141.478 26.8947C146.159 26.8947 149.619 24.3353 151.392 20.5969H146.769C145.432 22.3222 143.513 23.0699 141.594 23.0699C137.465 23.0699 134.267 19.7342 134.267 15.737C134.267 11.9986 137.262 8.54776 141.565 8.54776C144.124 8.54776 145.897 9.84193 146.973 11.1933H151.509ZM159.127 26.377H163.11V18.5264L170.175 5.09707H165.814L161.133 14.903L156.423 5.09707H152.061L159.127 18.5264V26.377Z" fill="white"/>
<path d="M16.4158 31.2125C24.9734 31.2125 31.9108 24.3511 31.9108 15.8872C31.9108 7.42335 24.9734 0.562012 16.4158 0.562012C7.85822 0.562012 0.920898 7.42335 0.920898 15.8872C0.920898 24.3511 7.85822 31.2125 16.4158 31.2125Z" fill="white"/>
<path d="M20.8664 14.4163C23.5654 14.4163 25.7533 12.2523 25.7533 9.58292C25.7533 6.9135 23.5654 4.74951 20.8664 4.74951C18.1674 4.74951 15.9795 6.9135 15.9795 9.58292C15.9795 12.2523 18.1674 14.4163 20.8664 14.4163Z" fill="#0B082F"/>
</g>
<defs>
<clipPath id="clip0_3182_153">
<rect width="180" height="31" fill="white" transform="translate(0.5 0.556152)"/>
</clipPath>
</defs>
</svg>
