<svg width="832" height="147" viewBox="0 0 832 147" fill="none" xmlns="http://www.w3.org/2000/svg">
<path d="M818.998 -62.6933C818.26 -63.8602 816.716 -64.208 815.549 -63.47L796.533 -51.4441C795.366 -50.7061 795.018 -49.1619 795.756 -47.995C796.494 -46.828 798.038 -46.4802 799.205 -47.2182L816.109 -57.9079L826.798 -41.0043C827.536 -39.8374 829.08 -39.4896 830.247 -40.2276C831.414 -40.9655 831.762 -42.5098 831.024 -43.6767L818.998 -62.6933ZM-30.6016 146.706C-29.4525 142.805 -28.0667 139.064 -26.4538 135.477L-31.014 133.427C-32.7211 137.223 -34.1855 141.177 -35.3979 145.294L-30.6016 146.706ZM-13.9305 115.499C-8.9773 109.55 -3.18729 104.127 3.38103 99.1857L0.375337 95.19C-6.47014 100.339 -12.5485 106.025 -17.7729 112.3L-13.9305 115.499ZM23.6757 86.619C30.5201 83.1121 37.8928 79.9353 45.7522 77.0607L44.0348 72.3649C36.0082 75.3007 28.4449 78.5573 21.3957 82.1691L23.6757 86.619ZM68.8412 69.8209C76.4141 67.792 84.3181 65.973 92.5245 64.3444L91.5512 59.4401C83.2496 61.0875 75.2378 62.9308 67.5472 64.9912L68.8412 69.8209ZM116.434 60.242C124.229 59.0947 132.24 58.0845 140.445 57.1973L139.907 52.2263C131.645 53.1196 123.571 54.1378 115.706 55.2953L116.434 60.242ZM164.645 54.966C172.619 54.348 180.743 53.8251 188.999 53.3857L188.734 48.3928C180.441 48.834 172.277 49.3595 164.259 49.981L164.645 54.966ZM213.421 52.3315C221.409 52.061 229.498 51.8544 237.676 51.7023L237.583 46.7032C229.383 46.8557 221.267 47.0629 213.252 47.3343L213.421 52.3315ZM262.061 51.4019C270.149 51.3491 278.307 51.3385 286.52 51.3615L286.534 46.3615C278.307 46.3385 270.134 46.3491 262.028 46.402L262.061 51.4019ZM310.851 51.5174C318.948 51.5955 327.085 51.6971 335.251 51.8142L335.323 46.8147C327.151 46.6975 319.005 46.5958 310.899 46.5176L310.851 51.5174ZM359.678 52.201C367.794 52.339 375.925 52.4841 384.062 52.6285L384.151 47.6293C376.015 47.4849 367.881 47.3397 359.763 47.2017L359.678 52.201ZM408.482 53.0516C416.622 53.1867 424.755 53.3131 432.868 53.4228L432.936 48.4233C424.829 48.3136 416.702 48.1873 408.565 48.0523L408.482 53.0516ZM457.321 53.696C465.503 53.7653 473.654 53.8093 481.76 53.8197L481.766 48.8197C473.674 48.8093 465.536 48.7654 457.364 48.6962L457.321 53.696ZM506.112 53.7403C514.348 53.6726 522.526 53.5605 530.629 53.395L530.527 48.396C522.446 48.5611 514.289 48.6729 506.071 48.7404L506.112 53.7403ZM555.09 52.7151C563.303 52.4217 571.424 52.0613 579.437 51.6238L579.164 46.6312C571.186 47.0669 563.097 47.4259 554.912 47.7183L555.09 52.7151ZM603.874 50.0126C612.171 49.3645 620.329 48.6167 628.33 47.7569L627.796 42.7855C619.848 43.6397 611.738 44.3831 603.485 45.0278L603.874 50.0126ZM652.64 44.7147C660.891 43.5241 668.939 42.1884 676.76 40.6921L675.821 35.7811C668.081 37.2618 660.109 38.5852 651.926 39.766L652.64 44.7147ZM700.636 35.4263C708.821 33.3568 716.696 31.0651 724.23 28.5288L722.634 23.7902C715.236 26.2811 707.484 28.5373 699.41 30.5788L700.636 35.4263ZM747.198 19.519C754.955 15.9804 762.222 12.0856 768.945 7.79927L766.258 3.58309C759.752 7.73032 752.693 11.5165 745.123 14.97L747.198 19.519ZM788.644 -7.38937C794.793 -13.168 800.191 -19.4823 804.761 -26.3786L800.593 -29.1405C796.25 -22.5867 791.107 -16.5651 785.22 -11.033L788.644 -7.38937ZM815.832 -48.6381C817.212 -52.5518 818.378 -56.607 819.324 -60.8078L814.446 -61.9063C813.542 -57.8923 812.43 -54.0256 811.117 -50.3004L815.832 -48.6381Z" fill="white"/>
</svg>
