<svg width="219" height="102" viewBox="0 0 219 102" fill="none" xmlns="http://www.w3.org/2000/svg">
<path d="M217.784 23.9658C218.951 23.2279 219.299 21.6837 218.561 20.5167L206.537 1.4992C205.799 0.332194 204.254 -0.0156869 203.087 0.722186C201.92 1.46006 201.573 3.00427 202.31 4.17128L212.999 21.0757L196.094 31.764C194.927 32.5019 194.579 34.0461 195.317 35.2131C196.055 36.3801 197.599 36.728 198.766 35.9901L217.784 23.9658ZM0.671333 192.141C2.5096 196.063 4.28496 199.802 5.9999 203.365L10.5051 201.197C8.79835 197.651 7.03038 193.926 5.19871 190.019L0.671333 192.141ZM16.5943 224.604C20.9182 232.902 24.7709 239.762 28.2165 245.303L32.4625 242.663C29.1053 237.264 25.3162 230.522 21.0284 222.294L16.5943 224.604ZM44.5491 263.915C46.5187 264.794 48.5555 265.013 50.5133 264.293C52.4054 263.597 53.863 262.154 55.0058 260.436C57.2472 257.066 58.8343 251.782 60.131 245.404L55.2312 244.407C53.9424 250.747 52.4986 255.177 50.8427 257.667C50.0369 258.878 49.3292 259.401 48.7868 259.601C48.3102 259.776 47.6433 259.821 46.5872 259.349L44.5491 263.915ZM63.6377 221.593C64.4911 214.352 65.3423 206.387 66.2917 198.006L61.3234 197.444C60.3683 205.875 59.5246 213.775 58.6721 221.008L63.6377 221.593ZM69.1818 174.449C70.219 166.793 71.4006 158.951 72.7932 151.055L67.8692 150.187C66.4625 158.163 65.2709 166.073 64.2271 173.778L69.1818 174.449ZM77.5322 127.918C79.3538 120.237 81.436 112.634 83.8395 105.234L79.0841 103.69C76.6324 111.238 74.5148 118.973 72.6671 126.765L77.5322 127.918ZM92.2727 83.3255C95.5654 76.0931 99.2786 69.2369 103.48 62.8959L99.3121 60.1341C94.9444 66.7259 91.1073 73.8182 87.7221 81.2538L92.2727 83.3255ZM118.195 44.9932C123.703 39.6552 129.819 35.0303 136.625 31.272L134.208 26.895C126.987 30.8823 120.518 35.7791 114.716 41.4027L118.195 44.9932ZM158.072 23.0108C165.104 21.325 172.725 20.3775 180.994 20.2806L180.936 15.2809C172.319 15.382 164.324 16.3702 156.906 18.1485L158.072 23.0108ZM204.099 22.0354C207.917 22.6298 211.849 23.3793 215.898 24.2916L216.997 19.4139C212.844 18.4781 208.802 17.7073 204.868 17.0949L204.099 22.0354Z" fill="white"/>
</svg>
