<svg width="79" height="161" viewBox="0 0 79 161" fill="none" xmlns="http://www.w3.org/2000/svg">
<path d="M7.69765 160.098C8.10331 160.82 9.01771 161.077 9.74002 160.671L21.5107 154.06C22.233 153.655 22.4898 152.74 22.0841 152.018C21.6784 151.296 20.764 151.039 20.0417 151.445L9.57886 157.321L3.70275 146.858C3.2971 146.136 2.38269 145.879 1.66038 146.285C0.938081 146.69 0.681377 147.605 1.08705 148.327L7.69765 160.098ZM10.4497 159.769C11.6519 155.486 12.868 151.412 14.0973 147.538L11.2378 146.63C9.99763 150.539 8.77206 154.645 7.56134 158.958L10.4497 159.769ZM22.8 123.793C26.5882 114.925 30.4795 107.57 34.4612 101.448L31.9464 99.8124C27.854 106.104 23.8845 113.617 20.0412 122.614L22.8 123.793ZM50.8662 82.8597C57.963 77.2435 65.3307 74.0359 72.9757 71.9629L72.1906 69.0675C64.2399 71.2234 56.4831 74.5889 49.0045 80.5072L50.8662 82.8597ZM97.8458 67.7346C105.985 66.6569 114.416 65.3831 123.022 62.6418L122.111 59.7833C113.776 62.4383 105.57 63.6856 97.452 64.7605L97.8458 67.7346ZM146.086 51.147C152.325 46.7122 158.604 41.0117 164.912 33.6174L162.629 31.6703C156.467 38.8938 150.368 44.4224 144.348 48.7018L146.086 51.147ZM179.93 12.6802C182.058 9.21317 184.189 5.51752 186.322 1.57708L183.684 0.149001C181.575 4.04453 179.472 7.69288 177.374 11.1108L179.93 12.6802Z" fill="white"/>
</svg>
